# xmcd
#
# Track frame offsets: 
#        150
#        25531
#        54970
#        72644
#        96809
#        120337
#        143630
#        182155
#        198698
#        224699
#        256367
#
# Disc length: 3694 seconds
#
# Revision: 1
# Processed by: cddbd v1.5.2PL0 Copyright (c) Steve Scherf et al.
# Submitted via: ExactAudioCopy v0.99pb4
#
DISCID=a10e6c0b
DTITLE=Cristiano De André - De André canta De André
DYEAR=2009
DGENRE=Folk
TTITLE0=Mégu Megún
TTITLE1='A çimma
TTITLE2=Ho visto Nina volare
TTITLE3=Se ti tagliassero a pezzetti
TTITLE4=Smisurata preghiera
TTITLE5=Verranno a chiederti del nostro amore
TTITLE6=Amico fragile
TTITLE7=La canzone di Marinella
TTITLE8=Quello che non ho
TTITLE9=Fiume Sand Creek
TTITLE10=Il pescatore
EXTD=
EXTT0=
EXTT1=
EXTT2=
EXTT3=
EXTT4=
EXTT5=
EXTT6=
EXTT7=
EXTT8=
EXTT9=
EXTT10=
PLAYORDER=
